<svg viewBox="0 0 22 27" fill="none" xmlns="http://www.w3.org/2000/svg">
    <path d="M10.6667 0C7.83769 0 5.12458 1.12381 3.12419 3.12419C1.12381 5.12458 0 7.83769 0 10.6667C0 17.8667 9.4 26 9.8 26.3467C10.0415 26.5532 10.3489 26.6668 10.6667 26.6668C10.9845 26.6668 11.2918 26.5532 11.5333 26.3467C12 26 21.3333 17.8667 21.3333 10.6667C21.3333 7.83769 20.2095 5.12458 18.2091 3.12419C16.2087 1.12381 13.4956 0 10.6667 0ZM10.6667 23.5333C7.82667 20.8667 2.66667 15.12 2.66667 10.6667C2.66667 8.54494 3.50952 6.5101 5.00981 5.00981C6.5101 3.50952 8.54493 2.66667 10.6667 2.66667C12.7884 2.66667 14.8232 3.50952 16.3235 5.00981C17.8238 6.5101 18.6667 8.54494 18.6667 10.6667C18.6667 15.12 13.5067 20.88 10.6667 23.5333ZM10.6667 5.33333C9.61183 5.33333 8.58069 5.64613 7.70363 6.23216C6.82656 6.8182 6.14298 7.65115 5.73931 8.62569C5.33564 9.60023 5.23002 10.6726 5.43581 11.7071C5.6416 12.7417 6.14955 13.692 6.89543 14.4379C7.64131 15.1838 8.59162 15.6917 9.62618 15.8975C10.6607 16.1033 11.7331 15.9977 12.7076 15.594C13.6822 15.1904 14.5151 14.5068 15.1012 13.6297C15.6872 12.7526 16 11.7215 16 10.6667C16 9.25218 15.4381 7.89562 14.4379 6.89543C13.4377 5.89524 12.0812 5.33333 10.6667 5.33333ZM10.6667 13.3333C10.1392 13.3333 9.62368 13.1769 9.18515 12.8839C8.74661 12.5909 8.40482 12.1744 8.20299 11.6872C8.00115 11.1999 7.94834 10.6637 8.05124 10.1464C8.15413 9.62914 8.40811 9.15399 8.78105 8.78105C9.15399 8.40811 9.62914 8.15413 10.1464 8.05124C10.6637 7.94835 11.1999 8.00115 11.6872 8.20299C12.1744 8.40482 12.5909 8.74662 12.8839 9.18515C13.1769 9.62368 13.3333 10.1392 13.3333 10.6667C13.3333 11.3739 13.0524 12.0522 12.5523 12.5523C12.0522 13.0524 11.3739 13.3333 10.6667 13.3333Z" fill="#2C5A74"/>
</svg>
