<svg width="32" height="19" viewBox="0 0 32 19" fill="none" xmlns="http://www.w3.org/2000/svg">
<path d="M1.6 3.16667H30.4C30.8243 3.16667 31.2313 2.99985 31.5314 2.70292C31.8314 2.40599 32 2.00326 32 1.58333C32 1.16341 31.8314 0.76068 31.5314 0.463748C31.2313 0.166815 30.8243 0 30.4 0H1.6C1.17565 0 0.768687 0.166815 0.468629 0.463748C0.168571 0.76068 0 1.16341 0 1.58333C0 2.00326 0.168571 2.40599 0.468629 2.70292C0.768687 2.99985 1.17565 3.16667 1.6 3.16667ZM30.4 15.8333H1.6C1.17565 15.8333 0.768687 16.0001 0.468629 16.2971C0.168571 16.594 0 16.9967 0 17.4167C0 17.8366 0.168571 18.2393 0.468629 18.5363C0.768687 18.8332 1.17565 19 1.6 19H30.4C30.8243 19 31.2313 18.8332 31.5314 18.5363C31.8314 18.2393 32 17.8366 32 17.4167C32 16.9967 31.8314 16.594 31.5314 16.2971C31.2313 16.0001 30.8243 15.8333 30.4 15.8333ZM30.4 7.91667H1.6C1.17565 7.91667 0.768687 8.08348 0.468629 8.38041C0.168571 8.67735 0 9.08007 0 9.5C0 9.91993 0.168571 10.3227 0.468629 10.6196C0.768687 10.9165 1.17565 11.0833 1.6 11.0833H30.4C30.8243 11.0833 31.2313 10.9165 31.5314 10.6196C31.8314 10.3227 32 9.91993 32 9.5C32 9.08007 31.8314 8.67735 31.5314 8.38041C31.2313 8.08348 30.8243 7.91667 30.4 7.91667Z" fill="black"/>
</svg>
