<svg width="26" height="26" viewBox="0 0 26 26" fill="none" xmlns="http://www.w3.org/2000/svg">
<path d="M15.2896 12.9986L25.5197 2.78368C25.8254 2.47787 25.9972 2.06311 25.9972 1.63064C25.9972 1.19817 25.8254 0.783408 25.5197 0.477604C25.2139 0.171799 24.7992 0 24.3668 0C23.9343 0 23.5196 0.171799 23.2138 0.477604L13 10.7088L2.78615 0.477604C2.48038 0.171799 2.06567 3.83969e-07 1.63324 3.87191e-07C1.20081 3.90413e-07 0.786096 0.171799 0.480324 0.477604C0.174552 0.783408 0.00277161 1.19817 0.0027716 1.63064C0.0027716 2.06311 0.174552 2.47787 0.480324 2.78368L10.7104 12.9986L0.480324 23.2136C0.328126 23.3645 0.207323 23.5441 0.124884 23.742C0.0424443 23.9399 0 24.1522 0 24.3666C0 24.581 0.0424443 24.7932 0.124884 24.9911C0.207323 25.189 0.328126 25.3687 0.480324 25.5196C0.63128 25.6718 0.810876 25.7927 1.00875 25.8751C1.20663 25.9576 1.41887 26 1.63324 26C1.8476 26 2.05985 25.9576 2.25772 25.8751C2.4556 25.7927 2.6352 25.6718 2.78615 25.5196L13 15.2884L23.2138 25.5196C23.3648 25.6718 23.5444 25.7927 23.7423 25.8751C23.9402 25.9576 24.1524 26 24.3668 26C24.5811 26 24.7934 25.9576 24.9912 25.8751C25.1891 25.7927 25.3687 25.6718 25.5197 25.5196C25.6719 25.3687 25.7927 25.189 25.8751 24.9911C25.9576 24.7932 26 24.581 26 24.3666C26 24.1522 25.9576 23.9399 25.8751 23.742C25.7927 23.5441 25.6719 23.3645 25.5197 23.2136L15.2896 12.9986Z" fill="black"/>
</svg>
